<svg width="128" height="128" viewBox="0 0 128 128" fill="none" xmlns="http://www.w3.org/2000/svg">
<path fill-rule="evenodd" clip-rule="evenodd" d="M73.8577 7.97226C69.6692 0.00924528 58.3308 0.00924528 54.1423 7.97226C51.3239 13.3303 44.7383 15.4444 39.328 12.7757C31.321 8.82617 22.1009 15.4767 23.3883 24.3543C24.2569 30.3445 20.1824 35.9441 14.2509 36.9632C5.45982 38.4736 1.9085 49.3093 8.15075 55.7175C12.3622 60.0408 12.3622 66.9592 8.15075 71.2825C1.9085 77.6907 5.45982 88.5264 14.2509 90.0368C20.1824 91.0559 24.2569 96.6554 23.3883 102.646C22.1009 111.523 31.321 118.174 39.328 114.224C44.7383 111.556 51.3239 113.67 54.1423 119.028C58.3308 126.991 69.6692 126.991 73.8577 119.028C76.6761 113.67 83.2617 111.556 88.672 114.224C96.679 118.174 105.899 111.523 104.612 102.646C103.743 96.6554 107.818 91.0559 113.749 90.0368C122.54 88.5264 126.091 77.6907 119.849 71.2825C115.638 66.9592 115.638 60.0408 119.849 55.7175C126.091 49.3093 122.54 38.4736 113.749 36.9632C107.818 35.9441 103.743 30.3445 104.612 24.3543C105.899 15.4767 96.679 8.82617 88.672 12.7757C83.2617 15.4444 76.6761 13.3303 73.8577 7.97226ZM35.6069 70.0919C39.2256 70.0919 42.1592 67.1406 42.1592 63.5C42.1592 59.8594 39.2256 56.9081 35.6069 56.9081C31.9882 56.9081 29.0547 59.8594 29.0547 63.5C29.0547 67.1406 31.9882 70.0919 35.6069 70.0919ZM98.9453 63.5C98.9453 67.1406 96.0118 70.0919 92.3931 70.0919C88.7744 70.0919 85.8408 67.1406 85.8408 63.5C85.8408 59.8594 88.7744 56.9081 92.3931 56.9081C96.0118 56.9081 98.9453 59.8594 98.9453 63.5ZM48.7334 82.8141L51.9538 86.0541C58.6068 92.7472 69.3932 92.7472 76.0462 86.0541L79.2666 82.8141L74.9424 78.4637L71.7219 81.7036C67.4572 85.9941 60.5428 85.9941 56.2781 81.7036L53.0576 78.4637L48.7334 82.8141Z" fill="#FF4C11"/>
</svg>
